<?xml version="1.0" encoding="UTF-8"?>
<svg id="Layer_2" data-name="Layer 2" xmlns="http://www.w3.org/2000/svg" viewBox="0 0 219.37 48.56">
  <defs>
    <style>
      .cls-1 {
        fill: #fff;
      }

      .cls-2 {
        fill-rule: evenodd;
      }

      .cls-2, .cls-3 {
        fill: #f36d21;
      }
    </style>
  </defs>
  <g id="Layer_1-2" data-name="Layer 1">
    <g>
      <g id="Icon">
        <path class="cls-1" d="M.01,0h21.05c1.94,0,3.61-.07,5.54.37,2.69.62,5.16,1.94,7.15,3.84,3.09,3.01,4.88,7.12,4.98,11.43.08,4.39-1.49,8.78-4.58,11.94-2.39,2.48-5.59,4-9.03,4.3-1.21.1-2.94.05-4.18.05-2.28,0-4.56,0-6.84,0-.18,0-.32.14-.32.32-.07,5.35-.06,10.9-.06,16.26-.12.11-7.34.01-8.05,0-.15-5.58.1-11.29,0-16.88-.03-1.79.73-3.78,1.84-5.18,1.3-1.67,3.22-2.76,5.33-3.01.82-.09,2.15-.06,3-.06h4.84c1.36.01,3.32.11,4.6-.21,1.12-.29,2.15-.86,2.99-1.65,4.3-4.04,2.08-12.45-4.08-12.99-.61-.05-1.33-.03-1.94-.03h-3.24s-8.4,0-8.4,0c-1.51,0-3.1.03-4.6,0-.29-.37-.61-.83-.88-1.23C3.49,4.84,1.63,2.45.01,0Z"/>
        <path class="cls-2" d="M4.76,11.49c.77,0,1.42.49,1.66,1.18h15.12c.36,0,.71.15.97.41l1.7,1.76c.48.5.51,1.28.06,1.8l-1.73,2.03s-.08.09-.13.13c-.15.58-.68,1.01-1.3,1.01-.5,0-.93-.27-1.17-.67H6.79c-.08,0-.16.04-.21.1l-1.48,1.79h0s0,0,0,0l-1.79,2.14c.12.24.2.51.2.8,0,.96-.78,1.74-1.75,1.74s-1.75-.78-1.75-1.74.78-1.74,1.75-1.74c.28,0,.55.07.79.19l1.73-2.07,1.48-1.79c.26-.31.64-.49,1.04-.49h13.03c.17-.54.68-.94,1.28-.94.38,0,.73.16.98.42l1.37-1.6c.09-.11.08-.26-.01-.36l-1.7-1.76c-.05-.05-.12-.08-.19-.08H6.44c-.22.71-.89,1.23-1.67,1.23-.97,0-1.75-.78-1.75-1.74s.78-1.74,1.75-1.74ZM1.75,23.08c-.49,0-.89.4-.89.89s.4.89.89.89.89-.4.89-.89-.4-.89-.89-.89ZM4.76,12.35c-.49,0-.89.4-.89.89s.4.89.89.89.89-.4.89-.89-.4-.89-.89-.89Z"/>
        <path class="cls-3" d="M37.66,26.18c.05.27-.36,1.3-.47,1.58-1.01,2.66-2.66,5.03-4.81,6.9-.4.35-.83.68-1.27.98s-.85.56-1.29.81-.87.46-1.32.65-.9.36-1.36.5-.93.26-1.4.36-.97.18-1.45.24-1.01.1-1.51.13-1.05.04-1.58.03c-.27,0-.55,0-.82-.02-.14,0-.28,0-.42-.01-.26-.01-.32-.03-.41.22s-.16.49-.25.74c-.17.5-.35,1-.54,1.5-.71,1.88-1.51,3.77-2.68,5.42-.08.1-.57.72-.57.32v-10.94c0-.45-.01-1.15.05-1.57.11-.13.18-.19.37-.19,2.91-.08,5.89.11,8.8-.05.95-.06,1.9-.2,2.83-.42,4.14-1.02,7.89-3.52,10.12-7.19Z"/>
      </g>
      <g>
        <g>
          <path class="cls-1" d="M79.51,14.48c-.8,1.4-1.97,2.51-3.53,3.33-1.55.82-3.44,1.23-5.64,1.23h-3.39v8.67h-8.55V.44h11.94c3.34,0,5.9.85,7.69,2.54,1.78,1.7,2.68,3.97,2.68,6.82,0,1.72-.4,3.28-1.19,4.68ZM72.03,9.8c0-1.67-.89-2.5-2.66-2.5h-2.43v5.01h2.43c1.77,0,2.66-.83,2.66-2.5Z"/>
          <path class="cls-1" d="M99.81,27.72l-5.12-9.79h-.04v9.79h-8.55V.44h12.71c2.21,0,4.1.39,5.66,1.18,1.57.78,2.74,1.85,3.53,3.2.78,1.35,1.17,2.87,1.17,4.57,0,1.82-.51,3.44-1.52,4.85-1.02,1.41-2.47,2.43-4.37,3.04l5.93,10.44h-9.4ZM94.65,12.23h3.39c.82,0,1.44-.19,1.85-.56.41-.37.62-.96.62-1.75,0-.72-.21-1.28-.64-1.7-.42-.41-1.03-.62-1.83-.62h-3.39v4.62Z"/>
          <path class="cls-1" d="M123.16.44v27.28h-8.55V.44h8.55Z"/>
          <path class="cls-1" d="M162.5.44v27.28h-8.51v-13.6l-4.2,13.6h-7.32l-4.2-13.6v13.6h-8.55V.44h10.48l6.01,16.37L152.06.44h10.44Z"/>
          <path class="cls-3" d="M195.79,23.59h-9.09l-1.35,4.12h-8.98L186.35.44h9.86l9.94,27.28h-9.02l-1.35-4.12ZM193.71,17.16l-2.47-7.59-2.47,7.59h4.93Z"/>
          <path class="cls-3" d="M219.33.44v27.28h-8.55V.44h8.55Z"/>
        </g>
        <g>
          <path class="cls-1" d="M60.57,38.23v9.75h-1.75v-9.75h1.75Z"/>
          <path class="cls-1" d="M73.98,47.98v-9.75h1.95l3.38,5.39c.13.21.27.44.43.72.15.27.32.58.48.91s.33.69.49,1.08l-.2.1c-.03-.35-.06-.71-.08-1.09s-.04-.74-.05-1.09c-.01-.34-.02-.63-.02-.86v-5.16h1.77v9.75h-1.96l-3.05-4.85c-.17-.28-.35-.57-.52-.87-.17-.3-.36-.64-.56-1.02s-.44-.83-.71-1.34l.25-.05c.03.48.06.92.08,1.35.02.42.04.8.05,1.13.01.33.02.59.02.8v4.86h-1.77Z"/>
          <path class="cls-1" d="M99.01,48.13c-.76,0-1.43-.12-1.99-.36s-1-.59-1.31-1.05c-.31-.46-.48-1.02-.5-1.67h1.71c.03.35.13.65.31.89.18.24.43.42.73.54.31.12.65.18,1.04.18s.73-.06,1.02-.17c.29-.12.53-.28.69-.49.17-.21.25-.46.25-.74,0-.25-.07-.46-.21-.62-.14-.17-.34-.31-.61-.43s-.58-.22-.95-.31l-1.09-.27c-.85-.21-1.51-.53-1.96-.96-.46-.43-.69-.99-.69-1.68,0-.58.15-1.08.46-1.51s.73-.77,1.27-1.01c.54-.24,1.15-.36,1.84-.36s1.32.12,1.84.36.93.58,1.23,1.01.45.93.46,1.5h-1.68c-.04-.44-.23-.78-.57-1.03-.33-.24-.77-.37-1.31-.37-.36,0-.68.06-.95.17-.27.11-.48.27-.62.46-.15.19-.22.42-.22.67s.08.48.24.65.36.31.62.42c.26.11.53.2.83.27l.93.24c.39.09.76.21,1.11.36.35.15.65.33.92.56s.47.49.62.79c.15.31.23.66.23,1.07,0,.58-.15,1.09-.44,1.52-.29.44-.72.78-1.27,1.02s-1.22.36-1.99.36Z"/>
          <path class="cls-1" d="M115.2,39.71v-1.48h7.77v1.48h-3.01v8.27h-1.74v-8.27h-3.02Z"/>
          <path class="cls-1" d="M137.67,38.23v9.75h-1.75v-9.75h1.75Z"/>
          <path class="cls-1" d="M150.62,39.71v-1.48h7.77v1.48h-3.01v8.27h-1.74v-8.27h-3.02Z"/>
          <path class="cls-1" d="M175.29,48.12c-.79,0-1.49-.15-2.08-.45-.59-.3-1.05-.71-1.38-1.24s-.49-1.14-.49-1.84v-6.37h1.73v6.22c0,.41.09.77.27,1.09.18.32.44.57.77.75s.72.27,1.17.27.84-.09,1.17-.27.59-.43.77-.75c.18-.32.27-.68.27-1.09v-6.22h1.74v6.37c0,.69-.16,1.31-.49,1.84s-.79.94-1.38,1.24c-.59.3-1.28.45-2.08.45Z"/>
          <path class="cls-1" d="M192.19,39.71v-1.48h7.77v1.48h-3.01v8.27h-1.74v-8.27h-3.02Z"/>
          <path class="cls-1" d="M212.92,47.98v-9.75h6.43v1.48h-4.69v2.61h4.34v1.46h-4.34v2.72h4.7v1.48h-6.45Z"/>
        </g>
      </g>
    </g>
  </g>
</svg>
