<?xml version="1.0" encoding="UTF-8"?>
<svg id="Layer_2" data-name="Layer 2" xmlns="http://www.w3.org/2000/svg" viewBox="0 0 175.44 127.76">
  <defs>
    <style>
      .cls-1 {
        fill: #fff;
      }

      .cls-2 {
        fill-rule: evenodd;
      }

      .cls-2, .cls-3 {
        fill: #f36d21;
      }
    </style>
  </defs>
  <g id="Layer_1-2" data-name="Layer 1">
    <g>
      <g id="Icon">
        <path class="cls-1" d="M63.31,0h26.55c2.45,0,4.56-.09,6.98.47,3.39.78,6.51,2.45,9.02,4.85,3.9,3.8,6.16,8.97,6.28,14.41.1,5.53-1.88,11.07-5.78,15.06-3.01,3.12-7.06,5.05-11.38,5.42-1.52.13-3.7.06-5.27.06-2.88-.01-5.75,0-8.63.01-.22,0-.4.18-.4.4-.09,6.75-.07,13.74-.08,20.51-.16.13-9.25.01-10.16,0-.19-7.04.13-14.23,0-21.28-.04-2.26.92-4.77,2.32-6.54,1.64-2.11,4.06-3.48,6.72-3.79,1.04-.12,2.71-.07,3.79-.07h6.11c1.72.02,4.19.14,5.8-.27,1.41-.37,2.71-1.08,3.77-2.08,5.43-5.1,2.62-15.7-5.15-16.38-.77-.07-1.67-.03-2.45-.03h-4.08s-10.59,0-10.59,0c-1.91,0-3.9.04-5.8,0-.37-.47-.77-1.05-1.11-1.55-2.06-3.09-4.41-6.1-6.45-9.19Z"/>
        <path class="cls-2" d="M69.3,14.49c.97,0,1.79.62,2.09,1.49h19.07c.46,0,.9.19,1.22.52l2.15,2.21c.61.63.64,1.61.07,2.27l-2.19,2.56c-.05.06-.1.11-.16.16-.19.73-.85,1.28-1.65,1.28-.63,0-1.18-.34-1.47-.85h-16.59c-.1,0-.2.05-.26.12l-1.87,2.25h0s0,0,0,0l-2.26,2.7c.16.3.25.65.25,1.01,0,1.22-.99,2.2-2.21,2.2s-2.21-.98-2.21-2.2.99-2.2,2.21-2.2c.36,0,.69.08.99.23l2.19-2.61,1.87-2.25c.32-.39.8-.61,1.31-.61h16.44c.22-.69.86-1.18,1.62-1.18.49,0,.92.2,1.23.53l1.73-2.02c.11-.13.11-.33-.01-.45l-2.15-2.21c-.06-.07-.15-.1-.24-.1h-19.05c-.28.9-1.12,1.56-2.11,1.56-1.22,0-2.21-.99-2.21-2.2s.99-2.2,2.21-2.2ZM65.5,29.11c-.62,0-1.12.5-1.12,1.12s.5,1.12,1.12,1.12,1.12-.5,1.12-1.12-.5-1.12-1.12-1.12ZM69.3,15.57c-.62,0-1.12.5-1.12,1.12s.5,1.12,1.12,1.12,1.12-.5,1.12-1.12-.5-1.12-1.12-1.12Z"/>
        <path class="cls-3" d="M110.79,33.02c.06.34-.45,1.63-.59,2-1.27,3.36-3.36,6.34-6.07,8.7-.51.44-1.05.85-1.6,1.24s-1.07.71-1.63,1.02-1.1.58-1.67.82-1.13.45-1.71.63-1.17.33-1.77.46-1.22.23-1.83.3-1.27.13-1.91.16-1.33.05-1.99.04c-.34,0-.69,0-1.03-.02-.17,0-.35-.01-.52-.02-.32-.01-.41-.04-.52.28s-.21.62-.31.93c-.22.63-.45,1.27-.68,1.89-.89,2.37-1.9,4.76-3.38,6.83-.09.13-.71.9-.71.4v-13.79c0-.57-.02-1.45.06-1.99.13-.17.23-.23.46-.24,3.67-.1,7.43.14,11.1-.06,1.2-.08,2.39-.26,3.56-.53,5.23-1.29,9.95-4.44,12.76-9.06Z"/>
      </g>
      <g id="Text_Vector" data-name="Text Vector">
        <path class="cls-3" d="M175.44,78.92v27.72h-7.71v-27.72h7.71Z"/>
        <path class="cls-3" d="M150.47,102.12h-9.83l-1.49,4.52h-8.1l10.11-27.72h8.89l10.07,27.72h-8.14l-1.49-4.52ZM148.54,96.23l-2.99-8.97-2.95,8.97h5.94Z"/>
        <path class="cls-1" d="M110.79,78.92v27.72h-7.71v-15.3l-5.23,15.3h-6.45l-5.27-15.41v15.41h-7.71v-27.72h9.32l6.96,18.01,6.8-18.01h9.28Z"/>
        <path class="cls-1" d="M68.93,78.92v27.72h-7.71v-27.72h7.71Z"/>
        <path class="cls-1" d="M44.15,106.65l-5.51-10.22h-.83v10.22h-7.71v-27.72h12.15c2.23,0,4.12.39,5.66,1.18,1.55.76,2.71,1.82,3.5,3.19.79,1.34,1.18,2.84,1.18,4.52,0,1.89-.52,3.55-1.57,4.99-1.02,1.42-2.53,2.42-4.52,3.03l6.25,10.81h-8.61ZM37.82,91.15h3.81c1.05,0,1.84-.25,2.36-.75.52-.5.79-1.22.79-2.16,0-.89-.28-1.59-.83-2.08-.52-.52-1.3-.79-2.32-.79h-3.81v5.78Z"/>
        <path class="cls-1" d="M21.9,88.16c0,1.68-.39,3.21-1.18,4.6-.76,1.36-1.93,2.46-3.5,3.3-1.55.81-3.45,1.22-5.7,1.22h-3.81v9.36H0v-27.72h11.52c2.23,0,4.12.39,5.66,1.18,1.57.79,2.75,1.87,3.54,3.26s1.18,2.99,1.18,4.8ZM10.77,91.15c2.18,0,3.26-1,3.26-2.99s-1.09-3.03-3.26-3.03h-3.07v6.02h3.07Z"/>
        <path class="cls-1" d="M167.67,127.61v-10.01h6.51v1.52h-4.7v2.72h4.36v1.52h-4.36v2.73h4.74v1.52h-6.55Z"/>
        <path class="cls-1" d="M145.34,119.12v-1.52h7.99v1.52h-3.09v8.49h-1.8v-8.49h-3.09Z"/>
        <path class="cls-1" d="M129.2,117.6h1.81v6.54c0,.72-.17,1.35-.51,1.89-.34.54-.81.97-1.42,1.28-.61.3-1.32.45-2.14.45s-1.53-.15-2.14-.45c-.61-.31-1.08-.73-1.42-1.28-.34-.54-.5-1.17-.5-1.89v-6.54h1.81v6.39c0,.42.09.79.27,1.11.19.33.45.58.78.77.34.18.73.27,1.19.27s.86-.09,1.19-.27c.34-.19.6-.44.78-.77s.27-.7.27-1.11v-6.39Z"/>
        <path class="cls-1" d="M100.56,119.12v-1.52h7.99v1.52h-3.09v8.49h-1.8v-8.49h-3.09Z"/>
        <path class="cls-1" d="M86.24,117.6v10.01h-1.81v-10.01h1.81Z"/>
        <path class="cls-1" d="M62.1,119.12v-1.52h7.99v1.52h-3.09v8.49h-1.8v-8.49h-3.09Z"/>
        <path class="cls-1" d="M46.24,120.35c-.05-.43-.24-.76-.58-1-.34-.24-.77-.36-1.31-.36-.38,0-.7.06-.97.17-.27.11-.48.27-.62.46-.14.2-.22.42-.22.67,0,.21.05.39.14.54.1.15.23.28.4.39.17.1.35.19.55.26.2.07.41.13.61.18l.94.23c.38.09.74.21,1.09.36.35.15.67.34.94.57.28.23.5.5.66.83.16.32.24.7.24,1.13,0,.59-.15,1.1-.45,1.55-.3.44-.73.79-1.3,1.04-.56.25-1.25.37-2.05.37s-1.45-.12-2.03-.36c-.57-.24-1.02-.59-1.34-1.06-.32-.46-.49-1.03-.52-1.69h1.78c.03.35.13.64.32.87.19.23.43.4.74.52.31.11.65.17,1.03.17s.74-.06,1.04-.18c.3-.12.53-.29.7-.5.17-.21.26-.47.26-.75,0-.26-.08-.48-.23-.65-.15-.17-.36-.32-.63-.43-.27-.12-.58-.22-.94-.31l-1.14-.29c-.82-.21-1.48-.53-1.95-.96-.48-.43-.71-1.01-.71-1.73,0-.59.16-1.11.48-1.55.32-.44.76-.79,1.31-1.03.55-.25,1.18-.37,1.88-.37s1.33.12,1.87.37c.54.24.96.58,1.27,1.02.31.43.46.93.47,1.5h-1.74Z"/>
        <path class="cls-1" d="M26.02,117.6v10.01h-1.61l-4.72-6.82h-.08v6.82h-1.81v-10.01h1.62l4.71,6.82h.09v-6.82h1.8Z"/>
        <path class="cls-1" d="M3.04,117.6v10.01h-1.81v-10.01h1.81Z"/>
      </g>
    </g>
  </g>
</svg>